<svg xmlns="http://www.w3.org/2000/svg" width="512" height="512" viewBox="0 0 135.467 135.467"><defs><linearGradient id="a" x1="120.166" x2="120.166" y1="113.644" y2="352.558" gradientTransform="scale(1.00872 .99135)" gradientUnits="userSpaceOnUse"><stop offset="0%" stop-color="#FFC943"/><stop offset="100%" stop-color="#FF8F00"/></linearGradient></defs><path d="M-171.583-98.821h74.6A30.367 30.367 0 0 1-66.55-68.388v74.6a30.367 30.367 0 0 1-30.433 30.433h-74.6a30.367 30.367 0 0 1-30.433-30.433v-74.6a30.367 30.367 0 0 1 30.433-30.433z" style="font-variation-settings:&quot;wght&quot;700;opacity:1;fill:#fff;stroke-width:1.32292;stroke-linecap:round;stroke-linejoin:round;paint-order:fill markers stroke" transform="translate(202.016 98.821)"/><g style="fill:none;stroke:none;stroke-width:1"><path fill="url(#a)" d="M225.888 267.51c37.652-15.777 3.765-76.559-29.584-110.087-33.35-33.17-92.876-67.416-109.909-29.584L2.484 313.949c-9.682 21.695 10.579 42.493 32.453 33.349Zm-80.325-59.346c-33.529-33.35-46.797-64.547-38.011-73.153 8.606-8.786 39.625 4.661 73.153 38.19 33.708 33.349 46.796 64.547 38.19 73.153-8.785 8.965-39.804-4.482-73.332-38.19z" style="fill:url(#a);stroke-width:1" transform="matrix(.26458 0 0 .26458 20.108 21.496)"/><path fill="#00a9ff" d="M214.95 58.092c15.42 0 27.792-12.55 27.792-27.97 0-15.599-12.372-27.791-27.791-27.791-15.6 0-27.97 12.192-27.97 27.791 0 15.42 12.37 27.97 27.97 27.97zm67.596 116.364c13.088 0 23.667-10.4 23.667-23.488 0-13.268-10.579-23.846-23.667-23.846-13.268 0-23.668 10.578-23.668 23.846 0 13.089 10.4 23.488 23.668 23.488zM127.275 33.529c9.323 0 16.853-7.53 16.853-16.854C144.128 7.53 136.598 0 127.275 0c-9.503 0-16.854 7.53-16.854 16.675 0 9.323 7.35 16.854 16.854 16.854z" style="stroke-width:.389844" transform="matrix(.26458 0 0 .26458 20.108 21.496)"/><path fill="#b620e0" d="M236.108 101.482 163.85 173.56c-4.303 4.123-4.124 11.295 0 15.598 4.303 4.303 11.655 4.483 15.778 0l72.078-72.256c3.944-4.124 3.944-10.937 0-15.42-4.483-3.945-11.475-3.945-15.6 0zM343.325 168.54c9.327 0 16.675-7.352 16.675-16.855 0-9.144-7.348-16.674-16.675-16.674-9.499 0-16.852 7.53-16.852 16.674 0 9.503 7.353 16.854 16.852 16.854z" style="stroke-width:.389844" transform="matrix(.26458 0 0 .26458 20.108 21.496)"/><path fill="#f7b500" d="m288.642 48.769-26.357 26.356c-4.482 4.304-4.303 11.475 0 15.779 4.303 4.123 11.296 4.303 15.599 0l26.536-26.536c4.303-4.303 4.124-11.296 0-15.6-4.303-4.302-11.475-4.482-15.778 0zM337.95 240.796c9.323 0 16.674-7.172 16.674-16.675 0-9.323-7.351-16.854-16.674-16.854-9.325 0-16.856 7.53-16.856 16.854 0 9.503 7.531 16.675 16.856 16.675z" style="stroke-width:.389844" transform="matrix(.26458 0 0 .26458 20.108 21.496)"/><path fill="#6dd400" d="M187.877 102.558c7.71 0 13.806-6.096 13.806-13.806 0-7.351-6.096-13.627-13.806-13.627-7.53 0-13.806 6.276-13.806 13.627 0 7.71 6.275 13.806 13.806 13.806zM294.558 205.833c-34.245-6.455-68.132-6.455-102.378 0-5.737 1.255-10.758 5.02-10.758 11.116.18 5.917 4.841 12.192 11.117 10.937 33.887-6.454 67.953-6.634 101.661-.179 5.917 1.434 11.116-4.841 11.116-10.758 0-6.275-5.02-9.861-10.758-11.116z" style="stroke-width:.389844" transform="matrix(.26458 0 0 .26458 20.108 21.496)"/><path fill="#fa6400" d="M330.418 41.597c7.532 0 13.627-6.096 13.627-13.806 0-7.351-6.095-13.626-13.627-13.626-7.71 0-13.806 6.275-13.806 13.626 0 7.71 6.096 13.806 13.806 13.806zM147.356 58.63c-1.255-5.737-5.02-10.937-11.117-10.758-5.916 0-12.192 5.02-10.937 11.117 6.455 33.708 6.455 67.774 0 101.66-1.434 6.097 5.02 10.938 10.937 10.938s9.862-4.84 10.938-10.578c6.454-34.246 6.454-68.133.179-102.379z" style="stroke-width:.389844" transform="matrix(.26458 0 0 .26458 20.108 21.496)"/></g></svg>