<svg height="800" viewBox="0 0 32 32" width="800" xmlns="http://www.w3.org/2000/svg"><path d="m6 2h20c2.2 0 4 1.8 4 4v20c0 2.2-1.8 4-4 4h-20c-2.2 0-4-1.8-4-4v-20c0-2.2 1.8-4 4-4z" fill="white"/><path d="m19.9 7.2c0-.2 0-.5.1-.7.1-.9.6-1.4 1.5-1.5.6-.1 1.3-.1 2 0 .9.1 1.4.7 1.5 1.7v2.6h-1.6v-2.1c0-.4-.1-.6-.4-.7h-.8c-.3 0-.4.2-.4.5v7.4c0 .3.2.5.5.5h.5c.3 0 .5-.2.5-.5v-2.6h1.6v2.8c0 .2 0 .4-.1.7-.2.6-.6 1.1-1.2 1.2-.7.1-1.5.1-2.2 0-.8-.1-1.3-.7-1.4-1.5v-.7c-.1-2.5-.1-4.8-.1-7.1zm-2.6-2.2h1.7v11.4h-1.6v-11.4zm.1 14.2h.9v3.3h-.9v-1.9h-.1c-.3.4-.5.8-.8 1.3-.3-.4-.6-.9-.8-1.3h-.1v1.9h-.8v-3.3h.9c.3.4.5.8.8 1.3.4-.5.6-.9.9-1.3zm-10.3-14.2h3.7v1.6h-2v3.2h2v1.5h-2v3.4h2.1v1.5h-3.8zm3.2 17.1c-.4.3-.8.5-1.3.5-.9 0-1.7-.4-1.9-1.4-.2-1.3.7-2.1 1.7-2.1.4 0 .9.1 1.2.3.1 0 .1.1.2.1-.2.3-.4.5-.6.7-.3-.2-.7-.4-1.1-.2-.2 0-.3.1-.5.3-.3.4-.2 1 .1 1.3s.9.3 1.2.1v-.4h-.5v-.7h1.5zm8.5 5.2-2.7.9h-.4c-1.4-.5-2.9-1-4.3-1.5 0 0-.1 0-.2-.1h9.4c-.5.3-1.1.5-1.8.7zm3-4.8h-2.7v-3.3h2.6v.7h-1.8v.6h1.6v.7h-1.6v.6h1.8v.7zm2.7-.1c-.6.4-1.9.2-2.4-.3.2-.2.3-.4.5-.6.3.2.6.4 1 .4h.3c.1 0 .1-.1.2-.2 0-.1-.1-.2-.1-.2-.2-.1-.3-.1-.5-.2s-.4-.1-.6-.2c-.3-.1-.5-.3-.6-.7 0-.4.1-.8.4-1 .4-.3.9-.3 1.4-.2.3.1.6.2.8.4-.1.2-.3.4-.4.6l-.9-.3h-.2c-.1 0-.2.1-.2.2s.1.2.1.2c.2.1.4.1.6.2s.4.1.6.2c.3.1.5.4.5.8s-.1.7-.5.9zm-8-15.6c0-.5-.2-1.1-.6-1.4s-.8-.4-1.2-.4h-2.9v11.3h1.7v-4.1h1.5c.9-.1 1.5-.7 1.5-1.6zm-1.7 3.4c0 .3-.2.5-.5.5h-.9v-4.1h.8c.3 0 .5.2.5.6.1 1 .1 2 .1 3zm-1.9 9h-.8c-.5 1.1-.9 2.2-1.4 3.4h.9c.1-.2.2-.4.2-.6h1.4l.3.6h.9c-.5-1.2-1-2.3-1.5-3.4zm-.8 2c.1-.3.3-.6.4-1 .1.4.3.7.4 1z" fill="black"/></svg>