<svg fill="none" height="79" viewBox="0 0 300 79" width="300" xmlns="http://www.w3.org/2000/svg"><g fill="#17191e"><path d="m20.2866 66.8455c-3.5543-3.241-4.5919-10.0507-3.1111-14.9842 2.5677 3.1105 6.1254 4.0958 9.8105 4.652 5.6889.8583 11.276.5373 16.5608-2.0565.6045-.297 1.1632-.6918 1.8238-1.0917.4959 1.435.625 2.8838.4518 4.3584-.4212 3.5911-2.2128 6.3651-5.0624 8.4679-1.1394.8412-2.3452 1.593-3.522 2.3861-3.6155 2.4376-4.5936 5.2957-3.2351 9.4533.0323.1012.0612.2025.1342.4497-1.8459-.824-3.1943-2.0238-4.2217-3.6014-1.0852-1.6651-1.6014-3.507-1.6286-5.5-.0136-.9698-.0136-1.9483-.1443-2.9044-.3193-2.3312-1.4163-3.3748-3.483-3.4349-2.1211-.0618-3.7989 1.2462-4.2438 3.3061-.034.1579-.0832.3142-.1325.4978z"/><path d="m0 51.0393s10.5249-5.1144 21.0793-5.1144l7.9576-24.5661c.2979-1.188 1.1678-1.9954 2.1498-1.9954.9821 0 1.8519.8074 2.1499 1.9954l7.9576 24.5661c12.5 0 21.0792 5.1144 21.0792 5.1144s-17.8774-48.58048-17.9124-48.67795c-.5131-1.436305-1.3793-2.36135-2.5471-2.36135h-21.4526c-1.1678 0-1.999.925045-2.5471 2.36135-.0386.09563-17.9142 48.67795-17.9142 48.67795z"/><path d="m110.967 43.9652c0 4.3048-5.368 6.8758-12.8003 6.8758-4.8371 0-6.5478-1.1958-6.5478-3.707 0-2.6307 2.1236-3.8863 6.9607-3.8863 4.3654 0 8.0814.0598 12.3874.5979zm.059-5.3213c-2.654-.5979-6.665-.9566-11.4435-.9566-13.9214 0-20.4692 3.2884-20.4692 10.9415 0 7.952 4.4831 11.0012 14.8652 11.0012 8.7895 0 14.7475-2.2122 16.9295-7.653h.354c-.059 1.3153-.118 2.6307-.118 3.6471 0 2.8101.472 3.0493 2.773 3.0493h10.854c-.59-1.6741-.944-6.3975-.944-10.4632 0-4.3646.177-7.653.177-12.0774 0-9.0283-5.427-14.768-22.416-14.768-7.3146 0-15.455 1.2555-21.6489 3.109.5899 2.4514 1.4158 7.4139 1.8287 10.6425 5.368-2.5111 12.9776-3.5873 18.8762-3.5873 8.141 0 10.382 1.8534 10.382 5.6202z"/><path d="m140.808 46.4763c-1.475.1794-3.48.1794-5.545.1794-2.183 0-4.188-.0598-5.545-.2392 0 .4784-.059 1.0165-.059 1.4948 0 7.4737 4.896 11.8383 22.121 11.8383 16.222 0 21.472-4.3048 21.472-11.8981 0-7.1747-3.48-10.7023-18.877-11.4796-11.974-.5381-13.036-1.8535-13.036-3.3482 0-1.7339 1.534-2.6307 9.556-2.6307 8.318 0 10.559 1.136 10.559 3.5275v.5381c1.18-.0597 3.304-.1195 5.486-.1195 2.065 0 4.306.0598 5.604.1793 0-.5381.059-1.0164.059-1.4349 0-8.7891-7.315-11.659-21.472-11.659-15.927 0-21.295 3.8864-21.295 11.4796 0 6.816 4.306 11.0611 19.584 11.7188 11.267.3587 12.506 1.6143 12.506 3.3482 0 1.8534-1.829 2.6905-9.733 2.6905-9.084 0-11.385-1.2556-11.385-3.8265z"/><path d="m192.722 14.9673c-4.306 4.0059-12.034 8.0118-16.34 9.088.059 2.2122.059 6.2779.059 8.4901l3.952.0598c-.059 4.245-.118 9.3869-.118 12.7949 0 7.952 4.188 13.931 17.225 13.931 5.486 0 9.143-.5979 13.685-1.5546-.472-2.9296-1.002-7.4139-1.179-10.8219-2.714.8969-6.135 1.3752-9.911 1.3752-5.25 0-7.373-1.4349-7.373-5.5604 0-3.5874 0-6.9356.059-10.0446 6.725.0597 13.449.1793 17.402.2989-.059-3.109.059-7.5933.236-10.5827-5.722.1195-12.152.1793-17.461.1793.059-2.6307.118-5.1419.177-7.653z"/><path d="m227.954 30.7517c.059-3.1091.118-5.7398.177-8.3107h-11.857c.177 5.1419.177 10.4033.177 18.1162 0 7.7128-.059 13.0341-.177 18.1162h13.567c-.236-3.5874-.295-9.6261-.295-14.768 0-8.1314 3.304-10.4632 10.795-10.4632 3.481 0 5.958.4186 8.141 1.1958.059-3.0492.649-8.9684 1.003-11.5991-2.242-.6577-4.72-1.0762-7.728-1.0762-6.43-.0598-11.149 2.5709-13.332 8.8488z"/><path d="m287.018 40.318c0 6.5171-4.719 9.5663-12.152 9.5663-7.374 0-12.093-2.8699-12.093-9.5663s4.778-9.2076 12.093-9.2076c7.374 0 12.152 2.6906 12.152 9.2076zm12.328-.2989c0-12.9743-10.146-18.7739-24.48-18.7739-14.393 0-24.186 5.7996-24.186 18.7739 0 12.9145 9.144 19.8501 24.127 19.8501 15.101 0 24.539-6.9356 24.539-19.8501z"/></g></svg>